<?xml version="1.0" standalone="no"?>
<!DOCTYPE svg PUBLIC "-//W3C//DTD SVG 1.1//EN" "http://www.w3.org/Graphics/SVG/1.1/DTD/svg11.dtd" >
<!--
2013-9-30: Created.
-->
<svg>
<metadata>
Created by iconfont
</metadata>
<defs>

<font id="iconfont" horiz-adv-x="1024" >
  <font-face
    font-family="iconfont"
    font-weight="500"
    font-stretch="normal"
    units-per-em="1024"
    ascent="896"
    descent="-128"
  />
    <missing-glyph />
    
    <glyph glyph-name="liuyan1" unicode="&#58890;" d="M800.941056 405.427968c-0.592896-8.250368-1.471488-16.749568-2.762752-25.74848-21.443584-148.588544-139.246592-256.449536-280.08448-256.449536L472.220672 123.229952l-8.406016-8.764416c31.63136-58.691584 90.435584-97.027072 156.529664-97.027072l45.5936 0 90.225664-94.185472c5.838848-6.088704 13.737984-9.326592 21.808128-9.326592 3.777536 0 7.585792 0.709632 11.256832 2.185216 11.430912 4.571136 18.909184 15.668224 18.909184 27.981824l0 76.99456c83.98848 17.422336 146.167808 96.32768 146.167808 191.625216C954.30656 310.184704 887.652352 390.945536 800.941056 405.427968zM755.18464 385.873664c2.100224 14.600192 3.111936 27.722752 3.111936 40.169472 0 142.984192-107.75552 259.33824-240.201728 259.33824L310.564864 685.381376c-132.45952 0-240.221184-116.354048-240.221184-259.33824 0-128.37376 84.829184-234.278912 198.528-255.466496l0-109.323264c0-14.3616 8.740864-27.27424 22.052864-32.620544 4.262912-1.698816 8.685568-2.545664 13.072384-2.545664 9.43616 0 18.650112 3.803136 25.411584 10.856448l124.250112 129.747968 64.436224 0C637.136896 166.69056 736.836608 258.86592 755.18464 385.873664zM243.791872 506.198784l337.614848 0c9.438208 0 17.130496-8.123392 17.130496-18.105344 0-9.986048-7.692288-18.096128-17.130496-18.096128L243.791872 469.997312c-9.454592 0-17.138688 8.11008-17.138688 18.096128C226.65216 498.075392 234.336256 506.198784 243.791872 506.198784zM446.496768 338.209536 243.791872 338.209536c-9.454592 0-17.138688 8.10496-17.138688 18.074624 0 10.006528 7.684096 18.12992 17.138688 18.12992l202.704896 0c9.43616 0 17.143808-8.123392 17.143808-18.12992C463.640576 346.314496 455.932928 338.209536 446.496768 338.209536z"  horiz-adv-x="1024" />

    
    <glyph glyph-name="home" unicode="&#58912;" d="M1013.80173 295.08506l-92.824105 398.987087c-7.480368 26.892487-38.20002 77.740572-100.846826 77.740572l-611.169627 0c-61.111846 0-88.894609-42.948161-95.126544-66.00325l-105.308441-411.79888c-3.581572-18.859533 3.90903-41.198308 20.537755-61.306274 19.627013-23.710005 46.202275-37.319977 72.879867-37.319977 7.992021 0 16.925485 1.187035 26.298969 4.482081l0-282.064121c0 0-6.41613-78.845743 70.209038-78.845743l612.960413 0c83.307358 0 82.672908 68.786643 82.672908 68.786643l0 296.93276c12.607132-6.641257 24.487717-8.360412 33.400714-8.370645 0 0 0 0 0.010233 0 44.145429 0 83.972507 41.628096 86.970794 90.910523C1014.630608 289.855966 1014.405481 292.506329 1013.80173 295.08506zM704.098109-35.412143l-385.980865 0c-49.79408 0-90.183975 40.389896-90.183975 90.204441 0 49.79408 40.389896 90.183975 90.183975 90.183975l385.980865 0c49.814546 0 90.204441-40.389896 90.204441-90.183975C794.302551 4.957287 753.912655-35.412143 704.098109-35.412143zM927.496086 251.072661c-12.760628 0-26.646893 17.815761-36.225039 46.499034-3.837398 11.461029-15.400758 19.360953-26.810622 18.685571-12.075013-0.378623-22.482037-8.616238-25.613354-20.292162-8.585539-32.080649-29.839609-46.703695-45.956681-46.703695-17.928325 0-33.850969 17.71343-42.590004 47.368844-3.397377 11.532661-13.927197 19.493983-25.951045 19.637246-12.596899 0.583285-22.748097-7.582699-26.391067-19.043728-9.29162-29.061896-28.253484-47.839565-48.279586-47.839565-18.706037 0-34.076096 17.34504-40.113603 45.271066-2.742461 12.719696-13.916964 21.458731-27.03575 21.612227-13.006222-0.143263-24.119327-9.393951-26.605961-22.164812-4.696975-24.139793-24.600281-45.311998-42.600237-45.311998-15.728216 0-31.200606 17.999956-42.47744 49.354058-4.01136 11.174504-15.370059 18.521842-26.595728 18.11252-11.860119-0.36839-22.134113-8.319479-25.459858-19.708877-9.782807-33.55421-28.161387-48.566112-42.037419-48.566112-16.229636 0-32.899294 19.094894-43.521213 49.845245-3.816932 11.051707-14.223956 18.439978-25.889647 18.439978l-0.399089 0c-11.82942-0.184195-22.205745-7.930623-25.725918-19.207457-8.55484-27.363208-24.252357-44.360324-40.962947-44.360324-16.720823 0-32.41834 16.997116-40.97318 44.360324-3.40761 10.939143-13.292748 18.593474-24.753777 19.176758-11.409864 0.542352-22.062482-6.057973-26.565029-16.618493-13.599739-31.896454-29.952172-49.466622-46.01808-49.466622-20.701484 0-38.711673 25.163099-39.499619 33.861202l104.20327 407.357731c1.350764 4.287653 9.731642 25.674753 42.313711 25.674753l611.169627 0c35.774785 0 47.010687-34.035164 47.808866-36.521798l91.50404-393.461233C956.588681 267.332996 940.215782 251.072661 927.496086 251.072661z"  horiz-adv-x="1024" />

    
    <glyph glyph-name="shenghuoaixinjuanzeng" unicode="&#58943;" d="M1023.52 446.208c-0.832 19.04-1.664 38.112-2.496 57.12-3.84 24.192-2.432 48.864-6.72 72.128-2.016 12.864-4 25.792-5.984 38.656-7.04 32.224-13.856 62.752-24.96 90.528-20.576 51.52-52.32 94.88-96.544 122.752-94.752 59.68-235.68 68.992-390.72 68.576-15.456-0.256-30.944-0.48-46.4-0.736-9.472-0.352-18.944-0.672-28.448-1.024-6.72-0.32-13.472-0.64-20.224-0.992-18.208-1.408-36.448-2.816-54.624-4.256-9.888-1.184-19.808-2.304-29.696-3.488-22.176-4.128-44.128-6.464-64.864-11.712-95.648-24.32-151.648-60.192-195.872-136.16-21.984-37.728-31.232-84.16-41.92-133.472-2.24-16.64-4.48-33.248-6.72-49.888-1.568-19.776-3.168-39.584-4.736-59.36-0.256-6.72-0.48-13.472-0.768-20.224-0.576-18.208-1.152-36.448-1.728-54.624l0-55.616c0.32-17.12 0.672-34.272 1.024-51.36 0.384-11.904 0.832-23.808 1.248-35.68 0.48-8.064 1.024-16.128 1.504-24.192 3.456-21.664 2.624-43.744 6.464-64.64 5.92-31.936 9.824-62.816 18.72-91.296 24.096-77.344 60.384-129.088 124.256-166.624 28.512-16.768 62.624-27.52 98.56-36.672 13.312-2.656 26.592-5.312 39.904-8 16.64-2.24 33.28-4.48 49.888-6.72 21.28-1.664 42.592-3.328 63.872-4.992 7.232-0.256 14.496-0.48 21.696-0.736 15.328-0.416 30.624-0.832 45.92-1.248 7.648-0.096 15.296-0.192 22.944-0.256l31.904 0c20.8 0.32 41.6 0.64 62.4 1.024 5.984 0.256 12 0.48 17.952 0.736 17.792 1.152 35.616 2.336 53.408 3.52 15.232 1.664 30.432 3.328 45.664 4.992 34.208 6.336 66.848 10.912 97.056 20.448 65.536 20.672 114.208 53.728 149.696 104.288 27.328 38.88 41.376 88.288 53.408 142.688 2.592 16.864 5.184 33.76 7.712 50.624 1.856 20.096 3.648 40.256 5.504 60.384 0.32 7.232 0.672 14.464 1.024 21.696 0.64 16.448 1.312 32.928 2.016 49.408l0 13.248c0.096 7.648 0.16 15.296 0.256 22.976l0 54.88c-0.192 7.808-0.352 15.616-0.512 23.424zM655.328 175.424l-40.544-30.88c-50.496-38.208-69.28-52.448-90.016-73.024-3.456-3.456-7.968-5.376-12.8-5.376s-9.408 1.888-12.768 5.376c-15.68 15.552-30.208 26.592-59.2 48.64-18.336 14.048-40.896 31.168-71.648 55.36-81.152 64-192.352 151.424-192.352 276.768 0 121.856 93.056 187.584 180.576 187.584 59.136 0 114.048-27.552 155.328-77.792 41.376 50.272 96.384 77.888 155.648 77.888 87.36 0 180.384-65.312 180.352-186.432 0-131.808-125.28-227.072-192.544-278.112zM667.552 603.744c-54.4 0-105.632-29.92-140.48-82.144-6.432-9.664-23.744-9.664-30.208 0-34.912 52.128-86.048 82.048-140.288 82.048-69.952 0-144.352-52.992-144.352-151.328 0-107.712 103.072-188.832 178.336-248 31.136-24.64 53.76-41.856 71.328-55.168 21.696-16.544 36.576-27.808 49.92-39.744 18.336 16.704 38.816 32.256 80.992 64.192l40.48 30.72c86.272 65.504 178.272 144.288 178.272 249.28 0.032 97.536-74.24 150.144-144.064 150.144zM607.744 238.048l-40.544-30.72c-24.256-18.464-41.6-31.52-55.744-42.752-7.136 5.44-14.944 11.456-23.936 18.304-15.392 11.744-38.688 29.408-70.816 54.784-68.448 53.856-162.112 127.584-162.112 214.752 0 71.552 51.264 108.96 101.952 108.96 39.872 0 78.176-23.072 105.088-63.232 11.104-16.576 29.856-26.496 50.24-26.496s39.168 9.888 50.304 26.432c26.88 40.256 65.312 63.328 105.312 63.328 50.56 0 101.76-37.024 101.76-107.744 0.032-85.632-83.328-156.192-161.504-215.584z"  horiz-adv-x="1025" />

    
    <glyph glyph-name="gt" unicode="&#58895;" d="M403.26 132.842l-36.027 36.027 216.303 216.301-216.303 216.301 36.027 36.026 252.329-252.329-252.329-252.329z"  horiz-adv-x="1024" />

    
    <glyph glyph-name="search" unicode="&#59142;" d="M904.680962 32.671353 704.136483 233.217878c24.752754 28.637224 44.725644 60.736293 59.525722 95.727225 18.927071 44.748157 28.523637 92.270497 28.523637 141.245931s-9.596566 96.496751-28.523637 141.244908c-18.276249 43.211151-44.436048 82.013899-77.752852 115.330702-33.316803 33.316803-72.119551 59.476603-115.329678 77.752852C525.829472 823.447591 478.308155 833.044156 429.33272 833.044156s-96.496751-9.596566-141.245931-28.52466c-43.211151-18.276249-82.013899-44.436048-115.330702-77.752852-33.316803-33.316803-59.476603-72.119551-77.752852-115.329678-18.927071-44.748157-28.52466-92.270497-28.52466-141.245931s9.596566-96.497775 28.52466-141.245931c18.276249-43.211151 44.436048-82.013899 77.752852-115.330702 33.316803-33.316803 72.119551-59.476603 115.330702-77.752852 44.748157-18.927071 92.270497-28.523637 141.245931-28.523637S525.829472 116.933455 570.578652 135.86155c38.863123 16.437367 74.144674 39.272445 105.0915 67.934229l200.066595-200.066595L904.680962 32.671353zM429.33272 151.555997c-175.695534 0-318.634014 142.940526-318.634014 318.636061 0 175.695534 142.93848 318.634014 318.634014 318.634014 175.695534 0 318.634014-142.93848 318.634014-318.634014C747.967758 294.4955 605.028255 151.555997 429.33272 151.555997zM430.307931 228.647793c-65.606207 0-127.285988 25.548886-173.676551 71.939449-46.390563 46.391587-71.939449 108.071368-71.939449 173.677575l30.699186 0c0-118.506021 96.410793-214.917838 214.916814-214.917838L430.307931 228.647793z"  horiz-adv-x="1024" />

    
    <glyph glyph-name="about" unicode="&#58881;" d="M740.27204 380.130982c-16.765743 0-33.531486-2.579345-49.007556-6.448362L579.062972 599.375315c16.765743 12.896725 28.372796 30.952141 33.531486 51.586902l162.498741-24.503779c7.738035-32.241814 37.400504-58.035264 72.221662-58.035264 41.269521 0 74.801008 32.241814 74.801008 73.511335S888.584383 715.445844 848.604534 715.445844c-29.662469 0-55.455919-18.055416-67.062972-42.559194l-166.367758 24.503778c-10.31738 43.848866-49.007557 76.09068-96.725441 76.09068-54.166247 0-99.304786-43.848866-99.304786-98.015113 0-54.166247 43.848866-98.015113 99.304786-98.015113 6.448363 0 12.896725 1.289673 19.345088 2.579345l109.622166-223.11335c-63.193955-32.241814-107.042821-98.015113-107.042821-174.105794 0-5.15869 0-9.027708 1.289673-12.896725l-215.375315-18.055416c-14.186398 56.745592-65.7733 99.304786-127.677582 99.304786C123.808564 251.163728 64.483627 191.838791 64.483627 120.906801s59.324937-130.256927 132.836272-130.256927c68.352645 0 123.808564 50.297229 131.5466 114.780856l221.823677 19.345089c25.793451-79.959698 100.594458-137.994962 190.871537-137.994963C851.183879-13.219144 941.460957 74.478589 941.460957 184.100756 938.881612 292.433249 849.894207 380.130982 740.27204 380.130982z"  horiz-adv-x="1024" />

    
    <glyph glyph-name="wode" unicode="&#58899;" d="M510.722191 768.967572c-211.112867 0-382.876798-171.762907-382.876798-382.876798 0-211.112867 171.762907-382.876798 382.876798-382.876798S893.598989 174.97893 893.598989 386.091798c0 211.112867-171.76393 382.875774-382.876798 382.875774z m0-729.328876c-98.830531 0-187.887053 41.77145-251.045419 108.355737 42.522981 96.074232 139.432704 165.163966 251.045419 165.163965 111.697698 0 208.440527-69.173693 250.87955-165.330859-63.15939-66.415345-152.130929-108.188843-250.87955-108.188843zM401.364071 459.024173c0 60.317084 49.038988 109.441055 109.35812 109.441055s109.442078-49.038988 109.442079-109.441055c0-60.317084-49.040012-109.441055-109.442079-109.441054-60.319132 0.001024-109.35812 49.12397-109.35812 109.441054z m191.14608-120.718127c38.681364 26.231942 64.076791 70.592798 64.076791 120.718127 0 80.451789-65.413986 145.865775-145.865775 145.865775-80.450766 0-145.864751-65.413986-145.864751-145.865775 0-50.12533 25.48041-94.402227 64.076791-120.718127-84.628218-23.225815-155.890636-82.707409-195.155614-159.400515-43.358472 57.894572-69.423521 129.491801-69.423521 207.186267 0 191.062121 155.388932 346.451053 346.452078 346.451053 191.062121 0 346.451053-155.389956 346.451053-346.451053 0-77.778425-26.065049-149.37463-69.507479-207.186267-39.430848 76.35932-110.86016 136.257635-195.239573 159.400515z"  horiz-adv-x="1024" />

    
    <glyph glyph-name="weibo" unicode="&#59196;" d="M448.698182 413.789091c-96.814545-4.654545-175.010909-56.785455-175.010909-121.949091s78.196364-114.501818 175.010909-109.847273S623.709091 248.087273 623.709091 313.250909c-0.930909 64.232727-79.127273 105.192727-175.010909 100.538182z m65.163636-164.770909c-29.789091-39.098182-88.436364-57.716364-145.221818-26.065455-26.996364 14.894545-26.065455 43.752727-26.065455 43.752728s-11.170909 92.16 85.643637 103.330909c97.745455 12.101818 115.432727-81.92 85.643636-121.018182zM448.698182 311.389091c-6.516364-4.654545-7.447273-13.032727-3.723637-18.618182 2.792727-5.585455 11.170909-6.516364 16.756364-1.861818 5.585455 4.654545 8.378182 13.032727 4.654546 18.618182-2.792727 5.585455-10.24 6.516364-17.687273 1.861818zM403.083636 298.356364c-18.618182-1.861818-30.72-17.687273-30.72-33.512728 0-14.894545 14.894545-26.065455 32.581819-24.203636 17.687273 1.861818 32.581818 15.825455 32.581818 31.650909s-13.963636 27.927273-34.443637 26.065455zM512 896C229.003636 896 0 666.996364 0 384s229.003636-512 512-512 512 229.003636 512 512S794.996364 896 512 896z m197.352727-626.501818C669.323636 183.854545 538.065455 141.963636 441.250909 149.410909c-92.16 7.447273-211.316364 38.167273-223.418182 151.738182 0 0-6.516364 51.2 42.821818 117.294545 0 0 70.749091 99.607273 152.669091 128.465455 82.850909 27.927273 92.16-19.549091 92.16-48.407273-4.654545-24.203636-12.101818-38.167273 18.618182-28.858182 0 0 80.989091 38.167273 114.501818 4.654546 26.996364-26.996364 4.654545-65.163636 4.654546-65.163637s-11.170909-12.101818 12.101818-16.756363c21.410909-3.723636 94.021818-37.236364 53.992727-122.88z m-80.058182 236.450909c-8.378182 0-15.825455 7.447273-15.825454 15.825454 0 9.309091 7.447273 15.825455 15.825454 15.825455 0 0 99.607273 18.618182 87.505455-89.367273v-1.861818c-0.930909-7.447273-7.447273-13.963636-15.825455-13.963636-9.309091 0-15.825455 7.447273-15.825454 15.825454 0 1.861818 15.825455 73.541818-55.854546 57.716364zM797.789091 402.618182c-2.792727-18.618182-12.101818-11.170909-22.341818-11.170909-13.032727 0-23.272727 16.756364-23.272728 29.789091 0 11.170909 4.654545 22.341818 4.654546 22.341818 0.930909 4.654545 12.101818 34.443636-7.447273 78.196363-35.374545 60.509091-106.123636 60.509091-114.501818 57.716364-8.378182-3.723636-21.410909-5.585455-21.410909-5.585454-13.032727 0-23.272727 10.24-23.272727 23.272727 0 11.170909 7.447273 19.549091 16.756363 22.341818 0 0 0-0.930909 0.930909-0.930909s1.861818-0.930909 1.861819-0.930909c10.24 1.861818 45.614545 4.654545 79.127272-3.723637 62.370909-14.894545 146.152727-83.781818 108.916364-211.316363z"  horiz-adv-x="1024" />

    
    <glyph glyph-name="ic_vpn_lock" unicode="&#60041;" d="M938.666667 725.333333V746.666667c0 58.88-47.786667 106.666667-106.666667 106.666666s-106.666667-47.786667-106.666667-106.666666v-21.333334a42.666667 42.666667 0 0 1-42.666666-42.666666v-170.666667a42.666667 42.666667 0 0 1 42.666666-42.666667h213.333334a42.666667 42.666667 0 0 1 42.666666 42.666667v170.666667a42.666667 42.666667 0 0 1-42.666666 42.666666z m-34.133334 0h-145.066666V746.666667c0 40.106667 32.426667 72.533333 72.533333 72.533333s72.533333-32.426667 72.533333-72.533333v-21.333334z m-97.066666-341.333333c1.706667-14.08 3.2-28.16 3.2-42.666667 0-88.746667-34.133333-169.386667-89.813334-230.186666A84.778667 84.778667 0 0 1 640 170.666667h-42.666667v128c0 23.466667-19.2 42.666667-42.666666 42.666666H298.666667v85.333334h85.333333c23.466667 0 42.666667 19.2 42.666667 42.666666v85.333334h85.333333c47.146667 0 85.333333 38.186667 85.333333 85.333333V748.373333c-40.32 12.8-83.413333 19.626667-128 19.626667C233.6 768 42.666667 577.066667 42.666667 341.333333s190.933333-426.666667 426.666666-426.666666 426.666667 190.933333 426.666667 426.666666c0 14.506667-0.853333 28.586667-2.133333 42.666667h-86.4zM426.666667 2.986667C258.346667 23.893333 128 167.253333 128 341.333333c0 26.24 3.2 51.84 8.96 76.373334L341.333333 213.333333v-42.666666c0-47.146667 38.186667-85.333333 85.333334-85.333334v-82.346666z"  horiz-adv-x="1024" />

    
    <glyph glyph-name="zhankai" unicode="&#58908;" d="M275.2 889.6c6.4 0 19.2 0 25.6-6.4l473.6-473.6c6.4-6.4 6.4-12.8 6.4-25.6 0-6.4-6.4-19.2-6.4-25.6l-473.6-473.6c-12.8-12.8-32-12.8-44.8 0-12.8 12.8-12.8 32 0 44.8L704 384 256 832C243.2 844.8 243.2 864 256 876.8c0 12.8 12.8 12.8 19.2 12.8z"  horiz-adv-x="1024" />

    
    <glyph glyph-name="shuangyinhao" unicode="&#58885;" d="M489.947 698.417l-9.213-98.428C321.361 564.851 241.53 499.273 241.53 403.131c0-27.465 25.609-57.222 76.71-89.27 50.332-32.05 75.541-71.762 75.541-119.033 0-42.001-13.366-75.536-40.09-100.775-26.665-25.123-61.775-37.71-105.236-37.71-51.163 0-94.453 17.74-129.933 53.22-35.509 35.479-53.194 81.832-53.194 139.059 0 112.85 36.283 208.989 108.702 288.42 72.478 79.314 177.8 133.107 315.918 161.375m468.082 0l-9.13-98.428c-159.46-35.936-239.205-101.519-239.205-196.858 0-27.465 25.551-57.222 76.627-89.27 50.414-32.05 75.536-71.762 75.536-119.033 0-42.001-13.133-75.536-39.483-100.775-26.324-25.123-61.55-37.71-105.842-37.71-51.846 0-95.166 17.74-129.9 53.22-34.71 35.479-52.107 81.832-52.107 139.059 0 114.452 36.282 211.165 108.76 290.139 72.506 78.968 177.4 132.191 314.744 159.656"  horiz-adv-x="1024" />

    
    <glyph glyph-name="zhihu1" unicode="&#58916;" d="M202.971429 870.4c-47.542857-18.285714-60.342857-36.571429-89.6-126.171429-18.285714-54.857143-47.542857-129.828571-69.485715-175.542857-7.314286-14.628571-10.971429-25.6-9.142857-27.428571 1.828571-3.657143 42.057143 7.314286 58.514286 14.628571 7.314286 3.657143 23.771429 16.457143 34.742857 27.428572 18.285714 18.285714 29.257143 36.571429 42.057143 74.971428 1.828571 5.485714 7.314286 5.485714 54.857143 5.485715h51.2v-40.228572c0-43.885714-5.485714-179.2-9.142857-197.485714l-1.828572-10.971429H76.8l-9.142857-7.314285c-9.142857-9.142857-25.6-40.228571-29.257143-58.514286l-1.828571-10.971429h109.714285l109.714286-1.828571-1.828571-20.114286c-3.657143-87.771429-54.857143-208.457143-124.342858-292.571428-18.285714-23.771429-74.971429-80.457143-98.742857-98.742858-14.628571-10.971429-14.628571-10.971429-7.314285-14.628571 16.457143-9.142857 78.628571-1.828571 126.171428 14.628571 20.114286 7.314286 27.428571 10.971429 43.885714 29.257143 38.4 40.228571 78.628571 111.542857 102.4 184.685715l14.628572 42.057142 12.8-14.628571c7.314286-7.314286 18.285714-21.942857 25.6-31.085714 69.485714-84.114286 87.771429-107.885714 106.057143-129.828572 27.428571-36.571429 34.742857-45.714286 38.4-43.885714 3.657143 3.657143 9.142857 45.714286 9.142857 71.314286 0 47.542857-1.828571 49.371429-53.028572 109.714285-53.028571 60.342857-84.114286 95.085714-87.771428 95.085715-1.828571 0-10.971429-7.314286-23.771429-18.285715-10.971429-9.142857-21.942857-16.457143-21.942857-16.457142s0 7.314286 3.657143 16.457142c5.485714 14.628571 16.457143 76.8 20.114286 104.228572l1.828571 14.628571H548.571429l-1.828572 21.942857c-1.828571 12.8-3.657143 29.257143-7.314286 38.4l-5.485714 16.457143-93.257143 1.828572H347.428571l1.828572 34.742857c1.828571 18.285714 3.657143 74.971429 3.657143 124.342857l1.828571 87.771429h171.885714l-1.828571 27.428571c-1.828571 31.085714-7.314286 43.885714-18.285714 49.371429-5.485714 3.657143-43.885714 3.657143-157.257143 3.657142h-149.942857l5.485714 21.942858c3.657143 12.8 12.8 40.228571 20.114286 64 7.314286 21.942857 14.628571 42.057143 14.628571 43.885714 1.828571 5.485714-16.457143 3.657143-36.571428-3.657143zM599.771429 749.714286c-3.657143-9.142857-1.828571-722.285714 1.828571-729.6 3.657143-5.485714 7.314286-5.485714 36.571429-5.485715h32.914285l9.142857-31.085714c5.485714-18.285714 10.971429-36.571429 12.8-40.228571 1.828571-5.485714 3.657143-9.142857 3.657143-9.142857 1.828571 0 9.142857 3.657143 18.285715 10.971428 117.028571 74.971429 104.228571 71.314286 202.971428 71.314286 62.171429 0 80.457143 1.828571 82.285714 3.657143 1.828571 3.657143 3.657143 102.4 3.657143 369.371428l-1.828571 365.714286-201.142857 1.828571c-179.2-3.657143-199.314286-3.657143-201.142857-7.314285z m323.657142-363.885715v-288.914285l-45.714285-3.657143-45.714286-1.828572-38.4-25.6c-21.942857-10.971429-43.885714-25.6-51.2-29.257142l-10.971429-7.314286-3.657142 14.628571c-1.828571 7.314286-5.485714 21.942857-9.142858 32.914286l-5.485714 18.285714h-31.085714V382.171429c0 159.085714 1.828571 290.742857 1.828571 290.742857 1.828571 1.828571 54.857143 1.828571 120.685715 1.828571l118.857142-1.828571v-287.085715z"  horiz-adv-x="1024" />

    
    <glyph glyph-name="twiter" unicode="&#58962;" d="M982.769877 730.086257c-30.399088-28.031159-42.942712-42.494725-42.942712-42.494725s10.879674-218.169455-103.548893-386.164415-262.200134-268.791936-476.977691-290.039299c-214.713559-21.247363-354.613362 66.174015-354.613362 66.174015s93.885183 5.375839 153.787387 28.35115c59.838205 22.975311 145.915623 83.517494 145.915622 83.517494s-122.364329 37.822865-166.33101 80.381589c-43.902683 42.686719-54.910353 67.901963-54.910352 67.901963l120.828375 1.599952S76.877054 407.087947 40.782137 460.65434 0.01536 566.251172 0.01536 566.251172l92.861214-37.694869S15.694889 634.025139 4.687219 716.00668C-6.32045 797.98822 18.830795 842.082898 18.830795 842.082898S58.061618 768.037119 219.65677 686.055578c161.595152-81.981541 298.167055-77.245683 298.167055-77.245682S466.049379 790.116457 626.108577 870.498045c160.059198 80.381589 270.135896-55.166345 270.135896-55.166345s27.903163 7.67977 48.702539 15.423537c20.799376 7.67977 50.878474 21.439357 50.878473 21.439357l-49.278521-88.445346 75.965721 8.063758s-9.34372-13.695589-39.742808-41.726749z"  horiz-adv-x="1024" />

    
    <glyph glyph-name="shijian" unicode="&#58887;" d="M662.9017060637475 577.495345401764c11.846820232272147 0 21.467451936006547 16.551903462409975 21.467451936006547 36.94850206375123l0 55.43238780498504c0 20.395857748389243-9.619890850782395 36.94850206375123-21.467451936006547 36.94850206375123-11.846079379320145 0-21.46671108305454-16.551903462409975-21.46671108305454-36.94850206375123l0-55.43238780498504C641.4349957048894 594.0479897171259 651.0548858314753 577.495345401764 662.9017060637475 577.495345401764zM362.4418622672558 577.495345401764c11.846820232272147 0 21.467451936006547 16.551903462409975 21.467451936006547 36.94850206375123l0 55.43238780498504c0 20.395857748389243-9.620631703734398 36.94850206375123-21.467451936006547 36.94850206375123s-21.467451936006547-16.551903462409975-21.467451936006547-36.94850206375123l0-55.43238780498504C340.97441033124926 594.0479897171259 350.5950420349837 577.495345401764 362.4418622672558 577.495345401764zM770.1967248141766 620.6192232638598l-42.89266221821308 0 0-40.414509093761446c0-23.82036397755146-19.241263407468796-43.12387786209583-42.935644724965094-43.12387786209583l-42.93416301906109 0c-23.6943813174963 0-42.935644724965094 19.303513884544373-42.935644724965094 43.12387786209583l0 40.414509093761446L426.843476498127 620.6192232638598l0-40.414509093761446c0-23.82036397755146-19.24052255451679-43.12387786209583-42.93416301906109-43.12387786209583l-42.934903872013095 0c-23.693640464544295 0-42.934903872013095 19.303513884544373-42.934903872013095 43.12387786209583l0 40.414509093761446-44.27921305596828 0c-23.6943813174963 0-42.89340379536152-19.325005137920378-42.89340379536152-43.12387786209583l0-472.8501229852438c0-23.821846407651897 19.19902247786522-43.10386903882027 42.89340379536152-43.10386903882027l516.4364314109085 0c23.73588139414787 0 42.935644724965094 19.28276348412037 42.935644724965094 43.10386903882027l0 472.8501229852438C813.1323695391416 601.2942181259393 793.9326062083244 620.6192232638598 770.1967248141766 620.6192232638598zM383.90931420326234 146.40404069423676L298.0395064592361 146.40404069423676 298.0395064592361 232.65031398832798l85.86980774402619 0L383.90931420326234 146.40404069423676zM383.90931420326234 275.7541830271483L298.0395064592361 275.7541830271483 298.0395064592361 361.9596970975399l85.86980774402619 0L383.90931420326234 275.7541830271483zM383.90931420326234 405.06282528340813L298.0395064592361 405.06282528340813 298.0395064592361 491.26833935379983l85.86980774402619 0L383.90931420326234 405.06282528340813zM554.2623788535595 146.40404069423676L469.7376211464405 146.40404069423676 469.7376211464405 232.65031398832798l84.52549783587456 0L554.2631197065115 146.40404069423676zM554.2623788535595 275.7541830271483L469.7376211464405 275.7541830271483 469.7376211464405 361.9596970975399l84.52549783587456 0L554.2631197065115 275.7541830271483zM554.2623788535595 405.06282528340813L469.7376211464405 405.06282528340813 469.7376211464405 491.26833935379983l84.52549783587456 0L554.2631197065115 405.06282528340813zM727.3040618717671 146.40404069423676L641.4349957048894 146.40404069423676 641.4349957048894 232.65031398832798l85.86906689107418 0L727.3040618717671 146.40404069423676zM727.3040618717671 275.7541830271483L641.4349957048894 275.7541830271483 641.4349957048894 361.9596970975399l85.86906689107418 0L727.3040618717671 275.7541830271483zM727.3040618717671 405.06282528340813L641.4349957048894 405.06282528340813 641.4349957048894 491.26833935379983l85.86906689107418 0L727.3040618717671 405.06282528340813z"  horiz-adv-x="1024" />

    
    <glyph glyph-name="xiangzuoxiangyou-copy-copy" unicode="&#58880;" d="M620.74000001 635.158l36.02699999-36.027-216.30299999-216.301 216.30299999-216.301-36.02699999-36.026-252.329 252.329 252.329 252.329z"  horiz-adv-x="1024" />

    
    <glyph glyph-name="chakan" unicode="&#58889;" d="M924.344303 280.023904C823.367517 143.51895000000002 675.607218 57.21228199999996 510.627746 57.21228199999996c-164.965146 0-312.725444 86.306668-413.717579 222.810598-44.591591 60.261479-44.591591 149.832494 0 210.108299 100.992135 136.50393 248.752434 222.810598 413.717579 222.810598 164.980495 0 312.740794-86.306668 413.71758-222.810598 44.591591-60.274782 44.591591-149.84682-0.001023-210.107275z m-32.869619 164.39721C795.042401 585.62816 656.248312 666.60545 510.686075 666.60545s-284.356326-80.977289-380.788609-222.185359c-22.976294-33.643238-22.976294-82.47234 0-116.115577 96.432283-141.208069 235.226373-222.200708 380.788609-222.200708s284.356326 80.992639 380.788609 222.216057c22.976294 33.628912 22.976294 82.458013 0 116.101251zM510.925528 176.527738c-115.27442 0-208.721719 93.448322-208.721718 208.721719s93.448322 208.721719 208.721718 208.721719 208.721719-93.448322 208.721719-208.721719-93.447299-208.721719-208.721719-208.721719z m0.202615 367.099843c-87.584778 0-158.580738-70.996984-158.580738-158.580739s70.996984-158.580738 158.580738-158.580738c87.584778 0 158.580738 70.996984 158.580738 158.580738s-70.995961 158.580738-158.580738 158.580739z"  horiz-adv-x="1024" />

    
    <glyph glyph-name="github" unicode="&#58882;" d="M465.981-105.74a89.578 89.578 0 0 0-89.889 88.955l-0.356 63.666c-176.662-38.422-213.927 74.93-213.927 74.93-28.895 73.372-70.523 92.873-70.523 92.873-57.61 39.446 4.364 38.645 4.364 38.645 63.71-4.452 97.28-65.447 97.28-65.447 56.631-97.058 148.569-69.009 184.765-52.803 5.699 41.049 22.172 69.053 40.337 84.947-141.045 16.028-289.303 70.523-289.303 313.79 0 69.32 24.799 125.952 65.447 170.429-6.589 16.028-28.316 80.584 6.144 168.025 0 0 53.337 17.052 174.659-65.09a609.28 609.28 0 0 0 158.943 21.37c53.915-0.223 108.276-7.257 159.031-21.37C814.186 889.321 867.434 872.27 867.434 872.27c34.549-87.485 12.822-152.042 6.233-168.025 40.693-44.433 65.358-101.109 65.358-170.43 0-243.89-148.57-297.583-289.926-313.299 22.751-19.723 43.053-58.323 43.053-117.582 0-84.992-0.312-119.674-0.312-119.674a89.622 89.622 0 0 0-89.8-89H465.98z"  horiz-adv-x="1024" />

    
    <glyph glyph-name="wangyiyunyinleclick" unicode="&#58883;" d="M627.086668 890.885037c28.132297 7.672445 58.822075 7.672445 86.954372 0 33.24726-7.672445 63.937038-23.017334 89.511853-43.477186 10.229926-7.672445 17.902371-15.344889 23.017334-28.132297 7.672445-17.902371 5.114963-38.362223-5.114963-53.707112-7.672445-12.787408-23.017334-23.017334-40.919704-25.574815-12.787408-2.557482-25.574815 0-38.362223 7.672445-5.114963 2.557482-10.229926 10.229926-17.902371 12.787407-17.902371 10.229926-35.804741 20.459852-56.264593 17.902371-15.344889 0-28.132297-7.672445-35.804742-17.902371-10.229926-10.229926-12.787408-23.017334-10.229926-35.804741 7.672445-25.574815 12.787408-53.707112 20.459853-79.281927 51.14963-2.557482 99.741779-15.344889 143.218965-40.919704 40.919704-25.574815 79.281927-58.822075 109.971705-97.184298 25.574815-33.24726 46.034667-71.609483 56.264593-112.529187 12.787408-43.477186 17.902371-89.511853 12.787408-132.989039-2.557482-38.362223-10.229926-74.166964-23.017334-109.971705-33.24726-84.39689-92.069335-161.121336-171.351261-209.713485-56.264593-35.804741-122.759113-58.822075-189.253633-66.49452-46.034667-5.114963-92.069335-5.114963-138.104002 2.557482-94.626816 15.344889-181.581188 61.379556-250.633189 130.431558-66.49452 66.49452-112.529187 153.448891-132.989039 245.518225-7.672445 69.052001-7.672445 138.104002 7.672445 207.156004 17.902371 81.839409 61.379556 161.121336 117.644149 222.500892 48.592149 51.14963 107.414224 89.511853 171.351262 117.64415 7.672445 2.557482 12.787408 5.114963 20.459852 7.672444 15.344889 2.557482 30.689778 0 43.477186-10.229926 17.902371-12.787408 25.574815-33.24726 23.017334-53.707112-2.557482-20.459852-17.902371-38.362223-35.804741-46.034667-63.937038-25.574815-122.759113-69.052001-163.678818-122.759113C205.102218 522.607698 179.527402 463.785623 171.854958 402.406067c-7.672445-61.379556 0-122.759113 20.459852-181.581188 30.689778-84.39689 94.626816-156.006373 173.908743-196.926077 48.592149-25.574815 102.299261-38.362223 156.006373-38.362223 43.477186 0 89.511853 7.672445 130.431558 23.017334 35.804741 12.787408 71.609483 33.24726 99.741779 58.822074 28.132297 23.017334 51.14963 53.707112 66.494519 84.396891 7.672445 15.344889 17.902371 33.24726 20.459853 51.14963 15.344889 51.14963 17.902371 107.414224 2.557481 158.563854-12.787408 43.477186-38.362223 81.839409-71.609482 109.971706-15.344889 12.787408-30.689778 25.574815-48.592149 35.804741-15.344889 7.672445-30.689778 15.344889-48.592149 17.902371 12.787408-46.034667 23.017334-92.069335 35.804741-135.546521 2.557482-10.229926 5.114963-23.017334 5.114963-33.24726 2.557482-46.034667-15.344889-94.626816-46.034667-130.431557-28.132297-33.24726-69.052001-58.822075-112.529187-66.49452-46.034667-10.229926-97.184298 0-138.104002 25.574815-38.362223 25.574815-66.49452 63.937038-81.839409 104.856743-7.672445 23.017334-12.787408 48.592149-12.787407 74.166964-2.557482 56.264593 12.787408 109.971705 43.477185 156.006373 35.804741 53.707112 94.626816 92.069335 158.563855 109.971705-5.114963 17.902371-10.229926 35.804741-12.787408 53.707112-12.787408 38.362223-10.229926 81.839409 7.672445 115.086668 10.229926 20.459852 23.017334 38.362223 40.919704 51.149631C583.609483 870.425185 604.069335 883.212592 627.086668 890.885037m-148.333928-414.312006c-17.902371-17.902371-28.132297-40.919704-33.24726-63.937038-5.114963-20.459852-5.114963-43.477186 0-66.49452 5.114963-23.017334 17.902371-46.034667 38.362223-61.379556 15.344889-10.229926 35.804741-15.344889 56.264594-10.229926 35.804741 5.114963 63.937038 38.362223 63.937038 74.166964-2.557482 7.672445-2.557482 17.902371-5.114963 25.574815-12.787408 48.592149-25.574815 99.741779-38.362223 148.333928-30.689778-7.672445-58.822075-23.017334-81.839409-46.034667z"  horiz-adv-x="1024" />

    
    <glyph glyph-name="faxian" unicode="&#58934;" d="M881.2 255.3m-78.6 0a78.6 78.6 0 1 1 157.2 0 78.6 78.6 0 1 1-157.2 0ZM788.7 609.8m-57 0a57 57 0 1 1 114 0 57 57 0 1 1-114 0ZM121.3 495.8m-57 0a57 57 0 1 1 114 0 57 57 0 1 1-114 0ZM671.9 258c-98.3-98.3-257.7-98.3-356.1 0-98.3 98.3-98.3 257.7 0 356.1L671.9 258zM480.4 101.1h-98.7c-5.1 0-9.2 4.1-9.2 9.2s4.1 9.2 9.2 9.2h98.7c5.1 0 9.2-4.1 9.2-9.2 0.1-5-4.1-9.2-9.2-9.2zM431.1 101.1c-5.1 0-9.2 4.1-9.2 9.2v92.5c0 5.1 4.1 9.2 9.2 9.2s9.2-4.1 9.2-9.2v-92.5c0-5-4.1-9.2-9.2-9.2zM648.4 394c-4.5 0-8.4 3.3-9.1 7.9-26.1 171.1-154.5 168-160 167.9-4.9-0.3-9.4 3.8-9.6 8.9s3.7 9.4 8.8 9.6c1.6 0 150.4 4.4 179.1-183.6 0.8-5-2.7-9.8-7.7-10.5-0.6-0.2-1-0.2-1.5-0.2zM713.2 403.3c-5 0-9.1 4-9.2 9-5.9 222.7-198.4 225.2-206.6 225.2-5.1 0-9.2 4.1-9.2 9.2s4.1 9.2 9.2 9.2c2.2 0 218.7-2.8 225-243.3 0.1-5.1-3.9-9.4-9-9.5-0.1 0.2-0.2 0.2-0.2 0.2z"  horiz-adv-x="1024" />

    
    <glyph glyph-name="remen" unicode="&#58886;" d="M707.33540258 345.01944090999996a27.21307878 27.21307878 0 0 1-46.80649623-8.43605387A202.7374387 202.7374387 0 0 0 625.69616535 275.08182773a282.19963036 282.19963036 0 0 1 1.63278508 30.47864895 344.5175813 344.5175813 0 0 1-2.44917763 37.82618005 279.20619133 279.20619133 0 0 1-20.95407047 73.20318245 31.02291034 31.02291034 0 0 1-3.53770043 7.61966224 272.13079049 272.13079049 0 0 1-99.87200074 114.83919407 27.21307878 27.21307878 0 0 1-27.21307877 0 27.21307878 27.21307878 0 0 1-14.42293194-23.67537926 187.49811512 187.49811512 0 0 0-19.8655477-81.63923724 182.05549937 182.05549937 0 0 0-69.39335177-74.83596754A244.91771171 244.91771171 0 0 1 292.33594669 286.78345177999995a238.65870342 238.65870342 0 0 1-38.64257258-130.35064879 234.57674159 234.57674159 0 0 1 27.21307967-112.66214667 241.10788104 241.10788104 0 0 1 85.17693677-90.07529203 27.21307878 27.21307878 0 0 1 30.47864895 0 27.21307878 27.21307878 0 0 1 10.34097012 28.57373271 241.38001129 241.38001129 0 0 0-6.25900829 54.42615847 226.95707936 226.95707936 0 0 0 15.78358587 83.81628371 213.35053996 213.35053996 0 0 0 16.32784726 34.83274102l1.63278509-3.80983157a425.61255715 425.61255715 0 0 1 180.15058313-199.74399968 187.22598398 187.22598398 0 0 1 17.96063236-9.52457847l2.99343902-1.63278419a27.21307878 27.21307878 0 0 1 29.11799412 3.53770044 286.28159217 286.28159217 0 0 1 97.15069286 151.03258901 308.86844774 308.86844774 0 0 1 8.98031618 71.02613597 284.92093824 284.92093824 0 0 1-63.40647465 178.7899292zM303.76543959 511.29135441a27.21307878 27.21307878 0 0 0-22.8589858 12.24588545 27.21307878 27.21307878 0 0 0 7.8917925 37.55404889l11.4294929 7.347532a27.21307878 27.21307878 0 0 0 27.21307968-46.80649622l-7.8917934-5.98687715a27.21307878 27.21307878 0 0 0-15.78358587-4.35409297zM688.28624745-78.68820000000005a29.11799501 29.11799501 0 0 0-9.52457758 1.63278509 372.54705262 372.54705262 0 0 0-63.67860579 29.66225551 425.61255715 425.61255715 0 0 0-180.15058314 199.74400057l-1.63278508 3.80983158a213.35053996 213.35053996 0 0 1-16.32784727-34.83274192 231.58330256 231.58330256 0 0 1-3.53770042-158.38012012 27.21307878 27.21307878 0 0 0-6.2590083-27.21307878 27.21307878 27.21307878 0 0 0-27.21307878-7.34753108 353.77002773 353.77002773 0 0 0-209.26857814 171.71452834 353.77002773 353.77002773 0 0 0 15.51145561 358.1241207c5.1704846 8.16392363 10.88523151 16.05571702 16.59997752 23.40324811a27.21307878 27.21307878 0 0 0 42.99666555-33.19995592c-4.89835436-6.53113854-9.52457757-13.06227799-13.87867053-19.8655477a299.34387017 299.34387017 0 0 1-13.33440915-303.15370084 299.34387017 299.34387017 0 0 1 130.62277994-126.81294928A304.78648593 304.78648593 0 0 0 346.76210516 37.511648010000044a282.19963036 282.19963036 0 0 0 19.32128539 103.1375691 279.20619133 279.20619133 0 0 0 54.42615846 91.16381482 27.21307878 27.21307878 0 0 0 27.21307878 8.16392454 27.21307878 27.21307878 0 0 0 19.86554769-19.3212863 397.03882354 397.03882354 0 0 1 16.59997842-46.53436598 373.09131403 373.09131403 0 0 1 157.56372846-174.43583622 279.75045273 279.75045273 0 0 1 42.45240327-20.68194024 372.54705262 372.54705262 0 0 1 144.77358072 210.90136234 380.9831074 380.9831074 0 0 1 10.88523151 90.61955341 363.2946053 363.2946053 0 0 1-54.42615845 193.48499229 299.34387017 299.34387017 0 0 0-18.23276261-31.56717175 340.16348834 340.16348834 0 0 0-113.75067039-110.48510111c-8.98031618-5.1704846-17.68850121-9.79670872-27.21307966-14.15080077a27.21307878 27.21307878 0 0 0-30.47864807 5.1704855 27.21307878 27.21307878 0 0 0-4.08196181 30.47864806 351.86511239 351.86511239 0 0 1 27.21307877 141.78014169 435.40926497 435.40926497 0 0 1-2.99343902 49.52780409 363.2946053 363.2946053 0 0 1-27.21307878 95.51790778v2.99343904l-1.63278509 2.99343811a351.86511239 351.86511239 0 0 1-91.98020734 122.18672516 358.6683821 358.6683821 0 0 0-34.01634849-103.6818314 27.21307878 27.21307878 0 0 0-48.43928039 24.4917718A306.14713988 306.14713988 0 0 1 444.45705851 819.34340961a27.21307878 27.21307878 0 0 0 42.18027301 22.85898672 408.19618618 408.19618618 0 0 0 148.5834114-171.44239812 45.99010367 45.99010367 0 0 0 4.62622321-9.79670871 413.91093309 413.91093309 0 0 0 31.02291035-108.85231601 502.62557027 502.62557027 0 0 0 2.44917763-56.87533609 421.80272557 421.80272557 0 0 0-9.52457847-88.71463718 288.73076892 288.73076892 0 0 1 56.87533609 65.31138996A277.57340624 277.57340624 0 0 1 754.95829135 538.2323029500001a27.21307878 27.21307878 0 0 0 45.99010367 8.98031617 424.7961646 424.7961646 0 0 0 93.8851227-266.14391334 435.40926497 435.40926497 0 0 0-12.51801661-103.68183141 426.42894879 426.42894879 0 0 0-179.06206035-251.17672001 27.21307878 27.21307878 0 0 0-14.96719331-4.89835436zM589.5027704 641.36987206z m-1.90491534 3.53770041z"  horiz-adv-x="1024" />

    
    <glyph glyph-name="email" unicode="&#58884;" d="M886.9 583.2c5.6 0.8 10.1-3.5 10.1-9.5l-0.1-34.2-275-215.1-218.3-30.6-274.4 137.8 0.1 34.2c0 6 4.5 11.6 10.2 12.4l747.4 105zM139.5 478c-5.6-0.8-10.1 3.5-10.1 9.5l0.1 50.5L501.7 829.1c3.8 2.6 7.9 4.3 12 4.9 4.1 0.6 8.2 0.1 12-1.5l371.4-186.6-0.1-50.5c0-6-4.6-11.6-10.2-12.4L139.5 478zM800.1 791.1c4.3 0.6 7.9-2.7 7.9-7.3l-1-540.9c0-4.6-3.6-8.9-7.9-9.6L206.6 150c-4.3-0.6-7.9 2.7-7.9 7.3l1 540.9c0 4.7 3.6 8.9 7.9 9.6l592.5 83.3zM820.3 782.1c4.3 0.6 7.9-2.7 7.9-7.3l-1-540.9c0-4.6-3.6-8.9-7.9-9.6L226.8 141c-4.3-0.6-7.9 2.7-7.9 7.3l1 540.9c0 4.7 3.6 8.9 7.9 9.6l592.5 83.3zM264.7 677.8c4.4 0.6 7.9-2.7 7.9-7.4 0-4.8-3.5-9.1-7.9-9.7-4.4-0.6-7.9 2.7-7.9 7.5 0 4.6 3.5 8.9 7.9 9.6zM302.6 684.2c4.4 0.6 7.9-2.7 7.9-7.4 0-4.8-3.5-9.1-7.9-9.7s-7.9 2.7-7.9 7.5c0 4.6 3.5 8.9 7.9 9.6zM340.4 689.5c4.4 0.6 7.9-2.7 7.9-7.4 0-4.8-3.5-9.1-7.9-9.7-4.4-0.6-7.9 2.7-7.9 7.5 0 4.7 3.5 9 7.9 9.6zM594.7 372.1l-22.5 12.3c-6.5 3.5-11.5 9.2-15.1 17l22.5-12.3c3.6-7.8 8.6-13.4 15.1-17M592.2 417.4l22.5-12.3c0.2-0.1 0.3-0.2 0.5-0.3 0.9-0.4 1.9-0.8 3-1.1h0.2c1.5-0.4 3.2-0.6 5.1-0.7L601 415.4c-1.9 0.1-3.6 0.3-5.1 0.7-1.4 0.3-2.6 0.7-3.7 1.3zM640.2 585.1l-22.5 12.3c26.3-14.3 40.9-41.1 43.6-80.3-0.5-5.1-1.2-10-1.9-14.7-0.2-1.2-0.4-2.5-0.6-3.7-0.6-4.1-1.3-8-2.1-11.8-0.1-0.6-0.2-1.2-0.3-1.7-0.9-4.2-1.9-8.2-2.9-12-0.3-1-0.5-1.9-0.8-2.9-0.9-3.1-1.9-6.1-2.9-8.9-0.3-0.7-0.5-1.5-0.8-2.2-0.5-1.4-1.1-2.7-1.6-4.1-0.5-1.2-0.9-2.4-1.4-3.5-0.6-1.3-1.2-2.5-1.8-3.7l-1.5-3c-1.4-2.6-2.9-5-4.4-7.2l-1.5-2.1c-0.9-1.2-1.7-2.3-2.6-3.4-0.6-0.8-1.3-1.5-2-2.2-0.7-0.8-1.5-1.6-2.3-2.3-0.7-0.7-1.4-1.3-2.1-1.9-0.8-0.7-1.7-1.4-2.6-2-0.7-0.5-1.3-0.9-2-1.4-1.3-0.8-2.6-1.6-4-2.3-0.6-0.3-1.2-0.7-1.9-0.9-1.2-0.6-2.5-1-3.8-1.5-0.6-0.2-1.2-0.5-1.9-0.6-1.9-0.6-3.9-1-6-1.3-1.5-0.2-2.9-0.3-4.5-0.4l22.5-12.3c1.5 0.1 3 0.2 4.5 0.4 2.1 0.3 4 0.7 6 1.3 0.6 0.2 1.2 0.4 1.9 0.6 1.3 0.4 2.6 0.9 3.8 1.4 0.2 0.1 0.5 0.2 0.7 0.3 0.4 0.2 0.8 0.5 1.2 0.7 1.4 0.7 2.7 1.4 4 2.3 0.3 0.2 0.7 0.4 1.1 0.6 0.3 0.2 0.6 0.5 1 0.8 0.9 0.6 1.7 1.3 2.6 2 0.4 0.4 0.9 0.7 1.3 1 0.3 0.3 0.5 0.6 0.8 0.8 0.8 0.7 1.5 1.5 2.3 2.3 0.4 0.5 0.9 0.9 1.3 1.3 0.2 0.3 0.4 0.6 0.7 0.8 0.9 1.1 1.8 2.2 2.6 3.4l1.2 1.5 0.3 0.6c1.5 2.3 3 4.7 4.4 7.3 0.1 0.1 0.1 0.2 0.2 0.3l1.3 2.6c0.6 1.2 1.3 2.5 1.8 3.8 0.5 1.1 1 2.3 1.4 3.4 0.6 1.4 1.1 2.7 1.7 4.1 0.1 0.2 0.2 0.4 0.3 0.7 0.2 0.5 0.3 1 0.5 1.5 1 2.9 2 5.8 2.9 9 0.3 0.9 0.6 1.9 0.8 2.9 1 3.8 2 7.8 2.9 12 0.1 0.6 0.2 1.2 0.3 1.7 0.8 3.8 1.5 7.7 2.1 11.8 0.2 1.2 0.4 2.4 0.6 3.7 0.7 4.7 1.3 9.6 1.9 14.7-2.9 39.3-17.4 66-43.8 80.4zM607.7 547.8l-22.5 12.3-5.9-24.5 22.5-12.3zM574.1 510.2l-22.5 12.3c11.7-6.4 16.5-21.6 14.5-45.6-0.9-3.1-1.8-6-2.7-8.9l-0.9-2.7c-0.6-1.9-1.3-3.8-1.9-5.6-0.2-0.6-0.4-1.2-0.7-1.8-1.3-3.5-2.7-6.9-4.1-10.1-0.2-0.4-0.3-0.8-0.5-1.2-1.5-3.3-3-6.4-4.5-9.3-0.4-0.8-0.8-1.5-1.2-2.3-0.6-1-1.1-2-1.7-3-0.5-0.9-1.1-1.8-1.6-2.6l-1.8-2.7c-0.5-0.7-1-1.4-1.4-2.1-1.6-2.2-3.2-4.3-4.8-6.2-0.3-0.3-0.6-0.7-0.9-1-1.2-1.3-2.4-2.5-3.6-3.7-0.5-0.4-0.9-0.8-1.4-1.3-1.2-1.1-2.5-2.1-3.7-3-0.3-0.2-0.6-0.5-0.9-0.7-1.8-1.2-3.6-2.2-5.4-3.1-0.5-0.2-1-0.5-1.5-0.7-1.1-0.5-2.3-0.9-3.5-1.3-0.5-0.2-1-0.3-1.5-0.5-1.7-0.5-3.3-0.9-5-1.1-2-0.3-4.1-0.4-6.2-0.4-2.4 0.1-4.5 0.4-6.5 0.9-1.9 0.5-3.6 1.1-5.2 2l22.5-12.3c0.2-0.1 0.5-0.3 0.8-0.4 1.3-0.6 2.7-1.2 4.2-1.5h0.2c2-0.5 4.2-0.8 6.5-0.9 2.1 0 4.2 0.1 6.2 0.4 1.7 0.2 3.4 0.6 5 1.1 0.5 0.1 1 0.3 1.5 0.5 1.2 0.4 2.3 0.8 3.5 1.3l0.9 0.3 0.6 0.3c1.8 0.9 3.7 1.9 5.4 3.1 0.1 0 0.1 0.1 0.2 0.1 0.2 0.2 0.5 0.4 0.7 0.6 1.3 0.9 2.5 1.9 3.7 3 0.2 0.2 0.5 0.3 0.7 0.5l0.7 0.7c1.2 1.1 2.4 2.4 3.6 3.7 0.2 0.3 0.5 0.5 0.7 0.7 0.1 0.1 0.1 0.2 0.2 0.3 1.6 1.9 3.3 4 4.8 6.2 0.2 0.2 0.3 0.4 0.5 0.6 0.3 0.5 0.6 1 1 1.5l1.8 2.7c0.5 0.9 1.1 1.7 1.6 2.7 0.6 1 1.1 1.9 1.7 3 0.2 0.4 0.5 0.8 0.7 1.3 0.2 0.3 0.3 0.7 0.5 1 1.5 2.9 3.1 6 4.5 9.3 0.2 0.4 0.3 0.8 0.5 1.2 1.4 3.2 2.7 6.6 4.1 10.1 0.1 0.4 0.3 0.7 0.4 1.1 0.1 0.2 0.2 0.5 0.2 0.7 0.7 1.8 1.3 3.7 1.9 5.5 0.3 0.9 0.6 1.8 0.9 2.8 0.9 2.9 1.8 5.8 2.7 8.9 1.8 21.1-1.7 35.3-10.4 42.8-1.3 1.1-2.6 2-4.1 2.8zM578.4 326.5c0.8 0.2 1.6 0.5 2.4 0.8 4.1 1.3 8.2 2.8 12.5 4.5 0.5 0.2 1 0.4 1.6 0.6 4.5 1.8 9.1 3.8 13.8 6l1.5 0.6c0.5 0.3 1.1 0.6 1.6 0.8 4.4 2.1 8.7 4.3 13.2 6.7l-22.5 12.3c-4.5-2.4-8.9-4.6-13.2-6.7-1-0.5-2.1-1-3.1-1.5-4.6-2.2-9.2-4.2-13.8-6-0.5-0.2-1-0.4-1.6-0.6-4.2-1.6-8.4-3.1-12.5-4.5-0.8-0.3-1.6-0.5-2.4-0.8-4.3-1.3-8.5-2.5-12.7-3.5-0.9-0.2-1.7-0.4-2.6-0.6-4.3-1-8.5-1.8-12.7-2.4-2-0.3-4.1-0.5-6.1-0.7-4.8-0.3-9.4-0.4-14-0.4h-4.1c-3.2 0-6.3 0.2-9.4 0.3-1.4 0.1-2.7 0.2-4.1 0.3-3.3 0.3-6.6 0.7-9.8 1.1l-2.4 0.3c-3.9 0.6-7.6 1.4-11.2 2.3-1.1 0.3-2.1 0.6-3.1 0.9-2.3 0.6-4.5 1.3-6.6 2-1.2 0.4-2.3 0.9-3.5 1.3l-5.7 2.4c-1.8 0.8-3.5 1.6-5.2 2.5l22.5-12.3c1.1-0.6 2.2-1.2 3.4-1.7 0.6-0.3 1.3-0.5 1.9-0.8 1.8-0.9 3.7-1.7 5.7-2.4 1.1-0.4 2.3-0.9 3.5-1.3 2.1-0.7 4.3-1.4 6.6-2 0.8-0.2 1.6-0.5 2.4-0.7 0.2-0.1 0.5-0.1 0.8-0.2 3.6-0.9 7.3-1.7 11.2-2.3l2.4-0.3c3.2-0.5 6.4-0.8 9.7-1.1 1.3-0.1 2.7-0.2 4.1-0.3 3.1-0.2 6.2-0.3 9.4-0.3 1.4 0 2.7-0.1 4.1 0 4.5 0 9.2 0.1 14 0.4 2 0.2 4 0.4 6.1 0.7 4.1 0.6 8.4 1.4 12.7 2.4 0.9 0.2 1.7 0.4 2.6 0.6 4.1 1.1 8.3 2.3 12.6 3.6zM618.8 564.8l-33.6-4.7 22.5-12.3 33.7 4.8zM574.9 543.6c1-0.2 2-0.5 3-0.8 1.9-0.6 3.7-1.2 5.4-2 1.1-0.5 2.2-0.8 3.2-1.4L564 551.7c-0.5 0.3-1 0.5-1.4 0.7-0.5 0.3-1.2 0.4-1.7 0.6-1.7 0.8-3.5 1.4-5.4 2-0.5 0.1-0.8 0.4-1.3 0.5-0.5 0.1-1.1 0.2-1.6 0.3-2 0.5-4.2 0.8-6.4 1.1-1 0.1-1.9 0.3-3 0.3h-0.5c-6.3 0.4-12.6-0.7-18.4-3h-0.1c-0.9-0.4-1.7-0.7-2.6-1.1l-3.6-1.5c-0.6-0.3-1.2-0.7-1.9-1-1.3-0.7-2.7-1.4-4-2.1-1.5-0.8-3-1.6-4.4-2.5-1.3-0.8-2.5-1.6-3.8-2.4-0.7-0.5-1.5-0.9-2.1-1.4-0.4-0.3-0.8-0.7-1.3-1-3.4-2.4-6.6-4.9-9.7-7.7-0.1-0.1-0.2-0.1-0.2-0.2-2.9-2.6-5.7-5.5-8.3-8.4l-0.9-0.9c-0.5-0.5-0.9-1.1-1.3-1.7-2.1-2.4-4-4.9-5.9-7.5-0.4-0.6-0.9-1.1-1.3-1.7-0.3-0.5-0.6-0.9-0.9-1.4-0.6-0.8-1.1-1.7-1.7-2.6-1.2-1.8-2.3-3.7-3.4-5.6-0.5-0.9-1.1-1.8-1.6-2.8-0.3-0.6-0.6-1.1-0.9-1.6l-1.5-3c-0.9-1.9-1.9-3.7-2.8-5.6-0.7-1.5-1.4-3.1-2.1-4.7-0.8-2-1.7-4-2.4-6-0.3-0.7-0.6-1.4-0.9-2.2l-0.9-2.7c-0.8-2.4-1.6-4.8-2.4-7.3-0.5-1.7-1-3.3-1.5-5-0.7-2.6-1.4-5.3-2.1-7.9-0.4-1.7-0.8-3.3-1.2-5.1-0.7-3-1.3-6.1-1.8-9.2-0.3-1.5-0.6-3-0.8-4.5-0.2-1.1-0.4-2.2-0.6-3.4-1.3-8-1.8-16.1-0.9-24.2 1.2-10.2 3.9-18.6 8.1-25.2 3.5-5.6 8.2-9.9 13.8-13l22.5-12.3c-15.1 8.2-22.7 25.3-22.7 51.3 0.6 5 1.3 9.8 2.1 14.5l0.9 4.5c0.6 3.1 1.2 6.2 1.8 9.2 0.4 1.7 0.8 3.4 1.2 5 0.7 2.7 1.3 5.4 2.1 8 0.5 1.7 1 3.4 1.5 5 0.8 2.5 1.6 4.9 2.4 7.3 0.6 1.6 1.2 3.3 1.8 4.9l2.4 6c0.7 1.6 1.3 3.2 2.1 4.7 0.9 1.9 1.8 3.8 2.8 5.6 0.8 1.6 1.6 3.1 2.4 4.7 0.5 0.9 1.1 1.9 1.6 2.8 1.1 1.9 2.3 3.8 3.4 5.6 0.6 0.9 1.1 1.7 1.7 2.6 0.7 1.1 1.5 2 2.2 3.1 1.9 2.6 3.9 5.1 5.9 7.6 0.7 0.9 1.5 1.7 2.2 2.6 2.7 2.9 5.4 5.8 8.3 8.4 0.1 0.1 0.2 0.1 0.3 0.2 3.1 2.8 6.4 5.3 9.7 7.7 1.1 0.8 2.3 1.6 3.4 2.4 1.2 0.8 2.5 1.6 3.8 2.4 1.4 0.9 2.9 1.7 4.4 2.5 1.3 0.7 2.6 1.4 4 2.1 1.8 0.9 3.6 1.7 5.4 2.5 0.9 0.4 1.7 0.8 2.6 1.1h0.1c5.8 2.4 12.1 3.5 18.4 3h0.5l3-0.3c2.1-0.4 4.2-0.7 6.3-1.2zM641.4 552.6L609 426.3c-3-15.2 1.9-22.9 14.6-23.2 1.5 0.1 3 0.2 4.5 0.4 28.5 4 46.6 33.7 54.3 89.3 1.1 8.2 1.3 16.7 0.1 24.9-8.7 58.4-48 84.7-117.9 78.9-5.2-0.4-10.5-1.4-15.5-2.9-82-24.1-124.9-82.5-128.8-175 2.8-71.2 44.2-104.4 124.2-99.4 2 0.2 4 0.4 6.1 0.7 22.7 3.2 47.5 12 74.4 26.4l10.2-33.3c-26.4-17.4-57.1-29.1-92.3-35.1-105.4-6.3-160.9 39.5-166.6 137.7 11.6 119.4 75.2 193.3 191 221.8 7.4 1.8 15.2 2.4 22.8 2.2 72.4-2.7 115.1-38.1 127.9-106.2 4.2-22.1 2.8-44.9-2.8-66.7-14.9-57.4-45.5-90.2-91.7-98.4-21.5-3-36.1 3.8-43.9 20.7-20.4-22-37.6-34-51.6-36-1.4-0.2-2.8-0.3-4.1-0.3-40-4.6-60 14.2-59.9 56.3 8.3 68.8 35.2 112.9 80.7 132.1 7.5 3.2 15.8 4.4 23.9 3.5 16-1.8 27-9 33.3-21.5l5.9 24.5 33.6 4.9z m-52.8-88c3 35.2-8.7 51.4-35 48.8-24.4-8.7-40.6-36.3-48.5-82.6-4-26.9 3.3-40.6 21.9-41.2 2.1 0 4.2 0.1 6.2 0.4 23.3 3.2 41.8 28.1 55.4 74.6M603 638.8c1.5-0.2 3-0.3 4.6-0.5 2.6-0.3 5.1-0.7 7.5-1.1 1.5-0.2 3-0.5 4.4-0.8 2.5-0.5 4.9-1 7.2-1.6 1.3-0.3 2.6-0.6 3.8-0.9 4-1.1 7.9-2.2 11.6-3.6 0.6-0.2 1.2-0.5 1.8-0.7 3.2-1.2 6.2-2.5 9.2-3.9 2-0.9 4-1.9 5.9-2.9l-22.5 12.3c-1.4 0.8-2.9 1.5-4.3 2.2-0.5 0.2-1 0.4-1.5 0.7-3 1.4-6 2.7-9.2 3.9-0.6 0.2-1.2 0.5-1.7 0.7-3.7 1.4-7.6 2.5-11.6 3.6-0.4 0.1-0.7 0.2-1 0.3-0.9 0.2-1.9 0.4-2.8 0.6-2.4 0.6-4.8 1.1-7.2 1.6-1.5 0.3-2.9 0.5-4.4 0.8-2.5 0.4-5 0.8-7.5 1.1-1.5 0.2-3 0.4-4.6 0.5-2.8 0.3-5.7 0.5-8.6 0.6-1.4 0.1-2.7 0.2-4.1 0.2h-0.1c-9 0.3-18-0.8-26.7-3.1-2.3-0.6-4.7-1.2-7-1.9-2.1-0.6-4.2-1.3-6.3-1.9-4.5-1.4-9-2.7-13.3-4.3-2.3-0.8-4.6-1.7-6.9-2.5-4-1.5-8-3.1-11.8-4.7-2.2-0.9-4.4-1.9-6.5-2.8-1.2-0.5-2.4-1-3.6-1.6-2-1-3.9-2.1-5.9-3.1-3.1-1.6-6.2-3.1-9.2-4.8-2.9-1.6-5.6-3.3-8.4-5-2.9-1.8-5.8-3.5-8.5-5.4-0.9-0.6-2-1.2-2.9-1.8-2.8-1.9-5.5-4-8.1-6l-2.4-1.8c-3.9-3.1-7.7-6.2-11.4-9.5-0.6-0.5-1.1-1.1-1.7-1.6-0.8-0.8-1.6-1.6-2.5-2.4-3.7-3.5-7.2-7.1-10.6-10.8-0.5-0.5-1-1.1-1.5-1.6-0.2-0.2-0.4-0.5-0.7-0.7-3.4-3.9-6.6-7.9-9.8-12.1-0.7-1-1.4-1.9-2.1-2.9-0.8-1.1-1.7-2.2-2.5-3.3-2.5-3.5-4.8-7.1-7.1-10.8-0.1-0.1-0.2-0.3-0.3-0.4-2.1-3.5-4.1-7-6.1-10.6-0.6-1.1-1.1-2.3-1.6-3.4-1-1.9-1.9-3.8-2.8-5.7-1.8-3.7-3.4-7.4-5-11.1-0.9-2.2-1.8-4.4-2.7-6.7-0.5-1.3-1.1-2.5-1.5-3.8-0.8-2.3-1.5-4.7-2.3-7-0.9-2.6-1.7-5.1-2.5-7.8-1.2-3.8-2.2-7.8-3.2-11.7-0.7-2.6-1.4-5.1-1.9-7.7-1-4.5-1.8-9.1-2.7-13.7-0.4-2.3-0.9-4.5-1.3-6.8v-0.2c-2.6-16.5-2.4-33.4 0.6-49.8 7.9-43.4 28.1-73.9 60.5-91.6l22.5-12.3c-32.5 17.7-52.6 48.2-60.5 91.6-3 16.4-3.2 33.3-0.6 49.8v0.2c0.4 2.3 0.9 4.5 1.3 6.8 0.8 4.6 1.7 9.2 2.7 13.7 0.6 2.6 1.3 5.2 2 7.7 1 4 2 7.9 3.2 11.7 0.8 2.6 1.7 5.2 2.5 7.8 1.2 3.7 2.5 7.3 3.8 10.8 0.9 2.3 1.8 4.5 2.7 6.7 1.5 3.6 3.1 7.1 4.7 10.5 1 2.1 2 4.2 3.1 6.3 2.5 4.8 5 9.4 7.7 13.9 0.1 0.1 0.2 0.3 0.3 0.4 3 4.9 6.2 9.5 9.5 14.1 0.7 1 1.4 1.9 2.1 2.9 3.3 4.4 6.8 8.7 10.4 12.8 0.5 0.5 1 1.1 1.5 1.6 3.4 3.7 6.9 7.3 10.6 10.8 0.8 0.8 1.6 1.6 2.5 2.4 4.2 3.8 8.5 7.5 13 11.1l2.4 1.8c3.6 2.7 7.3 5.3 11 7.8 2.8 1.9 5.7 3.6 8.5 5.4 2.8 1.7 5.5 3.4 8.4 5 3 1.7 6.1 3.2 9.2 4.8 3.1 1.6 6.3 3.2 9.5 4.6 2.1 1 4.3 1.9 6.5 2.8 3.9 1.6 7.8 3.2 11.8 4.7 2.3 0.9 4.6 1.7 6.9 2.5 4.3 1.5 8.8 2.9 13.3 4.3 2.1 0.6 4.1 1.3 6.3 1.9 2.3 0.6 4.6 1.3 7 1.9 8.7 2.3 17.7 3.4 26.7 3.1h0.1c1.4-0.1 2.7-0.2 4.1-0.2 3 0.1 5.8-0.1 8.6-0.4zM621.9 343.1l-218.3-30.7-274.4 137.9-0.9-485.4c0-0.6 0.1-1.1 0.2-1.7 0.7-5.1 4.9-8.6 10-7.9l747.4 105c5.1 0.7 9.3 5.4 10 10.7 0.1 0.6 0.2 1.2 0.2 1.7l0.9 485.4-275.1-215zM129.2 431.3l274.4-137.9-275.1-349.2c-0.1 0.6-0.2 1.1-0.2 1.7l0.9 485.4zM896.9 539.2l-0.9-485.4c0-0.6-0.1-1.2-0.2-1.7l-274 272.1 275.1 215zM621.9 324.2l274-272.1c-0.7-5.3-4.9-10-10-10.7l-747.4-105c-5.1-0.7-9.2 2.8-10 7.9l275.1 349.2 218.3 30.7z"  horiz-adv-x="1024" />

    
    <glyph glyph-name="liuyan" unicode="&#59092;" d="M256.004 95.99900000000002a32 32 0 0 0-30.361 42.12l64 192a31.991 31.991 0 0 0 7.73 12.508l512 512a32 32 0 0 0 45.255 0l128-128a32.001 32.001 0 0 0 0-45.254l-512-512a32.014 32.014 0 0 0-12.509-7.73l-192-64a31.976 31.976 0 0 0-10.115-1.644z m91.965 206.715l-41.372-124.118 124.117 41.373L914.745 704 832 786.745zM896-96H128a96.109 96.109 0 0 0-96 96V768a96.109 96.109 0 0 0 96 96h512a32 32 0 0 0 0-64H128a32.036 32.036 0 0 1-32-32v-768a32.036 32.036 0 0 1 32-32h768a32.036 32.036 0 0 1 32 32V512a32 32 0 0 0 64 0v-512a96.109 96.109 0 0 0-96-96zM832 544a31.898 31.898 0 0 0-22.627 9.373l-128 128a32 32 0 0 0 45.254 45.254l128-128A32 32 0 0 0 832 544z"  horiz-adv-x="1024" />

    
    <glyph glyph-name="leixing" unicode="&#58963;" d="M924.4 401.8L494.2 832 127 829.8c-33.6 0-60.8-27.2-60.8-60.8L64 401.8l430.2-430.2c47.5-47.5 124.5-47.5 172.1 0l258.1 258.1c47.5 47.6 47.5 124.6 0 172.1z m-43.1-129L623.2 14.7c-23.8-23.8-62.3-23.8-86 0L128.5 423.3 127 738.6c0 16.8 13.6 30.4 30.4 30.4l315.3-1.5 408.7-408.7c23.7-23.8 23.7-62.3-0.1-86zM257.6 638.4c-47.5-47.5-47.5-124.6 0-172.1s124.6-47.5 172.1 0 47.5 124.6 0 172.1c-47.6 47.5-124.6 47.5-172.1 0z m129-129c-23.8-23.8-62.3-23.8-86 0-23.7 23.8-23.7 62.3 0 86 23.8 23.8 62.3 23.8 86 0 23.8-23.8 23.8-62.3 0-86z"  horiz-adv-x="1024" />

    
    <glyph glyph-name="weixin" unicode="&#59076;" d="M670.3 527.2c10.2 0 20.4-0.7 30.5-1.9-27.4 127-163.7 221.3-319.5 221.3-173.9 0-316.5-118.1-316.5-268 0-86.6 47.4-157.6 126.7-212.7l-31.6-94.8 110.6 55.2c39.6-7.8 71.4-15.8 110.9-15.8 9.9 0 19.8 0.5 29.6 1.2-6.4 21.4-9.7 43.7-9.8 66 0 137.7 118.7 249.5 269.1 249.5z m-170.2 85.4c23.8 0 39.6-15.6 39.6-39.4 0-23.6-15.8-39.4-39.6-39.4-23.7 0-47.5 15.7-47.5 39.4 0 23.8 23.8 39.4 47.5 39.4z m-221.6-78.7c-23.7 0-47.7 15.7-47.7 39.4s23.9 39.4 47.7 39.4c23.7 0 39.5-15.6 39.5-39.4 0.1-23.7-15.7-39.4-39.5-39.4z m680.7-252.3c0 126-126.6 228.6-268.8 228.6-150.6 0-269.2-102.7-269.2-228.6 0-126.2 118.6-228.7 269.2-228.7 31.5 0 63.3 7.9 95 15.9l86.8-47.3-23.8 78.7c63.5 47.4 110.8 110.3 110.8 181.4zM603.1 321c-15.8 0-31.7 15.6-31.7 31.6 0 15.7 15.9 31.5 31.7 31.5 23.9 0 39.6-15.8 39.6-31.5 0-16-15.7-31.6-39.6-31.6z m174.1 0c-15.6 0-31.4 15.6-31.4 31.6 0 15.7 15.8 31.5 31.4 31.5 23.7 0 39.6-15.8 39.6-31.5 0-16-15.9-31.6-39.6-31.6z m0 0"  horiz-adv-x="1024" />

    
    <glyph glyph-name="more" unicode="&#58972;" d="M512.320602 895.998715A511.935109 511.935109 0 1 0 0.256996 384.063606 511.935109 511.935109 0 0 0 512.320602 895.998715z m2053.908327 0a511.935109 511.935109 0 1 0-513.991073-511.935109A512.963091 512.963091 0 0 0 2565.843436 895.998715z m2055.964292 0a511.935109 511.935109 0 1 0-513.991073-511.935109A512.963091 512.963091 0 0 0 4621.807728 895.998715z"  horiz-adv-x="5135" />

    
    <glyph glyph-name="shuangyinhao1" unicode="&#58888;" d="M534.05276 69.583031l9.212826 98.42773c159.373801 35.13828799 239.204987 100.715843 239.204987 196.85853 0 27.464515-25.608238 57.221236-76.710103 89.26914-50.331315 32.04995-75.540464 71.762417-75.540464 119.034047 0 42.00058 13.366426 75.535347 40.090067 100.774171C696.975387 699.06983899 732.085022 711.656505 775.54586 711.65650501c51.16326299 0 94.45320899-17.739013 129.933281-53.21908501 35.508725-35.479049 53.193503-81.832773 53.193503-139.059126 0-112.85020801-36.282345-208.988802-108.701724-288.420899C777.493212 151.644001 672.170444 97.85084099999995 534.05276 69.583031M65.971016 69.583031l9.129938 98.42773c159.460782 35.936467 239.204987 101.519138 239.204987 196.85853 0 27.464515-25.550932 57.221236-76.627215 89.26914-50.414203 32.04995-75.535347 71.762417-75.535347 119.034047 0 42.00058 13.133112 75.535347 39.482223 100.774171C227.950154 699.069839 263.175423 711.656505 307.468209 711.656505c51.845809 0 95.16543-17.739013 129.899512-53.219085 34.709523-35.479049 52.107775-81.832773 52.107775-139.059126 0-114.452705-36.282345-211.165374-108.760053-290.13903C308.209082 150.27072399999997 203.31508 97.04754600000001 65.971016 69.583031"  horiz-adv-x="1024" />

    
    <glyph glyph-name="project-o" unicode="&#58920;" d="M855.771429 742.4c-7.314286 7.314286-14.628571 21.942857-29.257143 29.257143-7.314286 7.314286-14.628571 21.942857-21.942857 29.257143-7.314286 14.628571-21.942857 21.942857-36.571429 21.942857H285.257143c-14.628571 0-29.257143 0-36.571429-7.314286-7.314286-7.314286-14.628571-7.314286-21.942857-14.628571l-21.942857-21.942857-36.571429-36.571429c-7.314286-14.628571-21.942857-29.257143-29.257142-43.885714h753.371428c-14.628571 14.628571-21.942857 29.257143-36.571428 43.885714z m7.314285-490.057143H160.914286c-29.257143 0-51.2-7.314286-65.828572-21.942857-14.628571-21.942857-21.942857-36.571429-21.942857-58.514286v-138.971428c0-29.257143 7.314286-51.2 29.257143-65.828572 14.628571-14.628571 36.571429-21.942857 58.514286-21.942857h694.857143c29.257143 0 51.2 7.314286 65.828571 21.942857 14.628571 14.628571 21.942857 36.571429 21.942857 58.514286v146.285714c0 21.942857-7.314286 43.885714-21.942857 58.514286-7.314286 14.628571-29.257143 21.942857-58.514286 21.942857zM585.142857 76.79999999999995c-7.314286-7.314286-7.314286-7.314286-14.628571-7.314286H460.8c-7.314286 0-14.628571 0-21.942857 7.314286 0 7.314286-7.314286 14.628571-7.314286 21.942857 0 7.314286 0 14.628571 7.314286 14.628572 7.314286 7.314286 7.314286 7.314286 21.942857 7.314285h102.4c7.314286 0 14.628571 0 14.628571-7.314285 7.314286-7.314286 7.314286-7.314286 7.314286-14.628572 7.314286-7.314286 0-14.628571 0-21.942857z m343.771429 519.314286c-14.628571 14.628571-36.571429 21.942857-65.828572 21.942857H160.914286c-29.257143 0-51.2-7.314286-65.828572-21.942857-14.628571-14.628571-21.942857-29.257143-21.942857-51.2v-146.285715c0-21.942857 7.314286-43.885714 21.942857-58.514285 14.628571-14.628571 36.571429-21.942857 65.828572-21.942857h702.171428c29.257143 0 51.2 7.314286 65.828572 21.942857 14.628571 14.628571 21.942857 36.571429 21.942857 58.514285v146.285715c0 21.942857-7.314286 36.571429-21.942857 51.2z m-365.714286-153.6H460.8c-7.314286 0-14.628571 0-14.628571 7.314285C438.857143 457.142857 438.857143 457.142857 431.542857 471.771429c0 7.314286 0 14.628571 7.314286 14.628571 7.314286 7.314286 7.314286 7.314286 21.942857 7.314286h102.4c7.314286 0 14.628571 0 14.628571-7.314286 7.314286 0 14.628571-7.314286 14.628572-14.628571-7.314286-21.942857-14.628571-29.257143-29.257143-29.257143z"  horiz-adv-x="1024" />

    
    <glyph glyph-name="zhihu" unicode="&#58901;" d="M82.483871 896m51.2 0l665.6 0q51.2 0 51.2-51.2l0-921.6q0-51.2-51.2-51.2l-665.6 0q-51.2 0-51.2 51.2l0 921.6q0 51.2 51.2 51.2ZM169.144991 896m51.2 0l578.93888 0q51.2 0 51.2-51.2l0-921.6q0-51.2-51.2-51.2l-578.93888 0q-51.2 0-51.2 51.2l0 921.6q0 51.2 51.2 51.2ZM404.480671 359.10656h93.0304c0 21.87264-10.31168 34.68288-10.31168 34.68288h-80.73216c1.91488 39.6288 3.6352 90.48064 4.2496 109.37344h76.8s-0.41984 32.50176-8.96 32.50176H343.603871s8.12032 42.496 18.95424 61.25568c0 0-40.30464 2.17088-54.05696-51.56864s-34.37568-86.25152-36.5568-92.16 11.86816-2.80576 17.80736 0 32.768 12.50304 40.62208 50.00192h41.69728c0.5632-23.76704 2.22208-96.59392 1.69984-109.37344h-85.93408c-12.1856-8.74496-16.25088-34.68288-16.25088-34.68288h98.22208c-4.096-27.12576-11.264-62.08512-21.3504-80.61952-15.93344-29.37856-24.3712-56.24832-81.92-102.5024 0 0-9.37984-6.87104 19.68128-4.37248s56.56576 10.00448 75.6224 48.128a491.80672 491.80672 0 0 1 28.14976 70.46144v-0.09216l80.896-93.184s10.62912 24.99584 2.816 52.50048l-59.99616 67.18464-20.31616-15.02208v-0.07168c5.64224 19.77344 9.69728 39.33184 10.9568 56.32zM537.457311 542.53568v-322.48832h33.90464L585.267871 181.248l58.75712 38.81984h74.05568V542.53568z m145.72544-287.7952H644.659871l-48.01536-31.744-11.34592 31.744h-11.96032V506.55232h109.84448v-251.81184zM132.659871 896h28.8256v-1024H132.659871a51.2 51.2 0 0 0-51.2 51.2V844.8A51.2 51.2 0 0 0 132.659871 896z"  horiz-adv-x="1024" />

    
    <glyph glyph-name="guangbo" unicode="&#58894;" d="M184 553.6h161.5V298H184c-13.5 0-24.4 10.9-24.4 24.4V529.2c0 13.5 11 24.4 24.4 24.4zM369.9 273.6H184c-26.9 0-48.8 21.9-48.8 48.8V529.2c0 26.9 21.9 48.8 48.8 48.8h185.9v-304.4zM184 529.2v-206.8h137.1V529.2H184zM692.9 507.1h-68.6v-185.9h68.6c13.5 0 24.4 10.9 24.4 24.4V482.7c0 13.5-10.9 24.4-24.4 24.4zM692.9 296.8h-93V531.5h93c26.9 0 48.8-21.9 48.8-48.8v-137.1c0-26.9-21.8-48.8-48.8-48.8z m-44.1 48.8H693V482.7h-44.2v-137.1z m161.5 91.8h46.5c12.8 0 23.2-10.4 23.2-23.2 0-12.8-10.4-23.2-23.2-23.2h-46.5c-12.8 0-23.2 10.4-23.2 23.2 0 12.8 10.4 23.2 23.2 23.2zM825 318.1l40.2-23.2c11.1-6.4 14.9-20.6 8.5-31.7-6.4-11.1-20.6-14.9-31.7-8.5l-40.2 23.2c-11.1 6.4-14.9 20.6-8.5 31.7 6.4 11.1 20.6 14.9 31.7 8.5z m-23.2 232.4l40.2 23.2c11.1 6.4 25.3 2.6 31.7-8.5 6.4-11.1 2.6-25.3-8.5-31.7L825 510.3c-11.1-6.4-25.3-2.6-31.7 8.5-6.4 11.1-2.6 25.3 8.5 31.7zM345.5 556.4l243 129.2c11.9 6.3 26.7 1.8 33-10.1 1.9-3.5 2.9-7.5 2.9-11.5v-497.2c0-13.5-10.9-24.4-24.4-24.4-4.4 0-8.8 1.2-12.6 3.5L345.5 291.1V556.4zM600 118c-8.8 0-17.5 2.4-25.1 6.9L321.1 277.2V571.1L577 707.2c23.7 12.7 53.4 3.6 66-20.2 3.7-7.1 5.7-15 5.7-22.9v-497.2c0.1-27-21.8-48.9-48.7-48.9zM369.9 304.9L600 166.8V664L369.9 541.7v-236.8zM206.1 286.4h93v-138.3c0-13.5-10.9-24.4-24.4-24.4h-44.2c-13.5 0-24.4 10.9-24.4 24.4V286.4zM274.7 99.3h-44.2c-26.9 0-48.8 21.9-48.8 48.8V310.8h141.8v-162.7c0-26.9-21.9-48.8-48.8-48.8zM230.5 262v-113.9h44.2V262h-44.2z"  horiz-adv-x="1024" />

    


  </font>
</defs>
</svg>
